<svg xmlns="http://www.w3.org/2000/svg" version="1.1" xmlns:xlink="http://www.w3.org/1999/xlink" xmlns:svgjs="http://svgjs.com/svgjs" width="1440" height="560" preserveAspectRatio="none" viewBox="0 0 1440 560"><g mask="url(&quot;#SvgjsMask1075&quot;)" fill="none"><rect width="1440" height="560" x="0" y="0" fill="url(#SvgjsLinearGradient1076)"></rect><path d="M22.61 580.07L80.64 613.57L80.64 680.57L22.61 714.07L-35.42 680.57L-35.42 613.57zM138.66 -22.93L196.69 10.57L196.69 77.57L138.66 111.07L80.64 77.57L80.64 10.57zM254.71 -22.93L312.74 10.57L312.74 77.57L254.71 111.07L196.69 77.57L196.69 10.57zM312.74 479.57L370.76 513.07L370.76 580.07L312.74 613.57L254.71 580.07L254.71 513.07zM254.71 580.07L312.74 613.57L312.74 680.57L254.71 714.07L196.69 680.57L196.69 613.57zM370.76 -22.93L428.79 10.57L428.79 77.57L370.76 111.07L312.74 77.57L312.74 10.57zM370.76 178.07L428.79 211.57L428.79 278.57L370.76 312.07L312.74 278.57L312.74 211.57zM370.76 379.07L428.79 412.57L428.79 479.57L370.76 513.07L312.74 479.57L312.74 412.57zM428.79 479.57L486.81 513.07L486.81 580.07L428.79 613.57L370.76 580.07L370.76 513.07zM544.84 77.57L602.86 111.07L602.86 178.07L544.84 211.57L486.81 178.07L486.81 111.07zM544.84 278.57L602.86 312.07L602.86 379.07L544.84 412.57L486.81 379.07L486.81 312.07zM602.86 -22.93L660.89 10.57L660.89 77.57L602.86 111.07L544.84 77.57L544.84 10.57zM660.89 278.57L718.91 312.07L718.91 379.07L660.89 412.57L602.86 379.07L602.86 312.07zM602.86 379.07L660.89 412.57L660.89 479.57L602.86 513.07L544.84 479.57L544.84 412.57zM602.86 580.07L660.89 613.57L660.89 680.57L602.86 714.07L544.84 680.57L544.84 613.57zM718.91 178.07L776.94 211.57L776.94 278.57L718.91 312.07L660.89 278.57L660.89 211.57zM718.91 379.07L776.94 412.57L776.94 479.57L718.91 513.07L660.89 479.57L660.89 412.57zM834.96 178.07L892.99 211.57L892.99 278.57L834.96 312.07L776.94 278.57L776.94 211.57zM892.99 278.57L951.02 312.07L951.02 379.07L892.99 412.57L834.96 379.07L834.96 312.07zM951.02 -22.93L1009.04 10.57L1009.04 77.57L951.02 111.07L892.99 77.57L892.99 10.57zM1009.04 77.57L1067.07 111.07L1067.07 178.07L1009.04 211.57L951.02 178.07L951.02 111.07zM951.02 379.07L1009.04 412.57L1009.04 479.57L951.02 513.07L892.99 479.57L892.99 412.57zM1009.04 479.57L1067.07 513.07L1067.07 580.07L1009.04 613.57L951.02 580.07L951.02 513.07zM1125.09 77.57L1183.12 111.07L1183.12 178.07L1125.09 211.57L1067.07 178.07L1067.07 111.07zM1183.12 178.07L1241.14 211.57L1241.14 278.57L1183.12 312.07L1125.09 278.57L1125.09 211.57zM1241.14 479.57L1299.17 513.07L1299.17 580.07L1241.14 613.57L1183.12 580.07L1183.12 513.07zM1299.17 379.07L1357.19 412.57L1357.19 479.57L1299.17 513.07L1241.14 479.57L1241.14 412.57zM1357.19 479.57L1415.22 513.07L1415.22 580.07L1357.19 613.57L1299.17 580.07L1299.17 513.07zM1299.17 580.07L1357.19 613.57L1357.19 680.57L1299.17 714.07L1241.14 680.57L1241.14 613.57zM1415.22 -22.93L1473.24 10.57L1473.24 77.57L1415.22 111.07L1357.19 77.57L1357.19 10.57zM1473.24 77.57L1531.27 111.07L1531.27 178.07L1473.24 211.57L1415.22 178.07L1415.22 111.07zM1415.22 379.07L1473.24 412.57L1473.24 479.57L1415.22 513.07L1357.19 479.57L1357.19 412.57zM1415.22 580.07L1473.24 613.57L1473.24 680.57L1415.22 714.07L1357.19 680.57L1357.19 613.57z" stroke="rgba(28, 144, 189, 1)" stroke-width="2"></path><path d="M15.91 580.07 a6.7 6.7 0 1 0 13.4 0 a6.7 6.7 0 1 0 -13.4 0zM73.94 613.57 a6.7 6.7 0 1 0 13.4 0 a6.7 6.7 0 1 0 -13.4 0zM73.94 680.57 a6.7 6.7 0 1 0 13.4 0 a6.7 6.7 0 1 0 -13.4 0zM15.91 714.07 a6.7 6.7 0 1 0 13.4 0 a6.7 6.7 0 1 0 -13.4 0zM-42.12 680.57 a6.7 6.7 0 1 0 13.4 0 a6.7 6.7 0 1 0 -13.4 0zM-42.12 613.57 a6.7 6.7 0 1 0 13.4 0 a6.7 6.7 0 1 0 -13.4 0zM131.96 -22.93 a6.7 6.7 0 1 0 13.4 0 a6.7 6.7 0 1 0 -13.4 0zM189.99 10.57 a6.7 6.7 0 1 0 13.4 0 a6.7 6.7 0 1 0 -13.4 0zM189.99 77.57 a6.7 6.7 0 1 0 13.4 0 a6.7 6.7 0 1 0 -13.4 0zM131.96 111.07 a6.7 6.7 0 1 0 13.4 0 a6.7 6.7 0 1 0 -13.4 0zM73.94 77.57 a6.7 6.7 0 1 0 13.4 0 a6.7 6.7 0 1 0 -13.4 0zM73.94 10.57 a6.7 6.7 0 1 0 13.4 0 a6.7 6.7 0 1 0 -13.4 0zM248.01 -22.93 a6.7 6.7 0 1 0 13.4 0 a6.7 6.7 0 1 0 -13.4 0zM306.04 10.57 a6.7 6.7 0 1 0 13.4 0 a6.7 6.7 0 1 0 -13.4 0zM306.04 77.57 a6.7 6.7 0 1 0 13.4 0 a6.7 6.7 0 1 0 -13.4 0zM248.01 111.07 a6.7 6.7 0 1 0 13.4 0 a6.7 6.7 0 1 0 -13.4 0zM306.04 479.57 a6.7 6.7 0 1 0 13.4 0 a6.7 6.7 0 1 0 -13.4 0zM364.06 513.07 a6.7 6.7 0 1 0 13.4 0 a6.7 6.7 0 1 0 -13.4 0zM364.06 580.07 a6.7 6.7 0 1 0 13.4 0 a6.7 6.7 0 1 0 -13.4 0zM306.04 613.57 a6.7 6.7 0 1 0 13.4 0 a6.7 6.7 0 1 0 -13.4 0zM248.01 580.07 a6.7 6.7 0 1 0 13.4 0 a6.7 6.7 0 1 0 -13.4 0zM248.01 513.07 a6.7 6.7 0 1 0 13.4 0 a6.7 6.7 0 1 0 -13.4 0zM306.04 680.57 a6.7 6.7 0 1 0 13.4 0 a6.7 6.7 0 1 0 -13.4 0zM248.01 714.07 a6.7 6.7 0 1 0 13.4 0 a6.7 6.7 0 1 0 -13.4 0zM189.99 680.57 a6.7 6.7 0 1 0 13.4 0 a6.7 6.7 0 1 0 -13.4 0zM189.99 613.57 a6.7 6.7 0 1 0 13.4 0 a6.7 6.7 0 1 0 -13.4 0zM364.06 -22.93 a6.7 6.7 0 1 0 13.4 0 a6.7 6.7 0 1 0 -13.4 0zM422.09 10.57 a6.7 6.7 0 1 0 13.4 0 a6.7 6.7 0 1 0 -13.4 0zM422.09 77.57 a6.7 6.7 0 1 0 13.4 0 a6.7 6.7 0 1 0 -13.4 0zM364.06 111.07 a6.7 6.7 0 1 0 13.4 0 a6.7 6.7 0 1 0 -13.4 0zM364.06 178.07 a6.7 6.7 0 1 0 13.4 0 a6.7 6.7 0 1 0 -13.4 0zM422.09 211.57 a6.7 6.7 0 1 0 13.4 0 a6.7 6.7 0 1 0 -13.4 0zM422.09 278.57 a6.7 6.7 0 1 0 13.4 0 a6.7 6.7 0 1 0 -13.4 0zM364.06 312.07 a6.7 6.7 0 1 0 13.4 0 a6.7 6.7 0 1 0 -13.4 0zM306.04 278.57 a6.7 6.7 0 1 0 13.4 0 a6.7 6.7 0 1 0 -13.4 0zM306.04 211.57 a6.7 6.7 0 1 0 13.4 0 a6.7 6.7 0 1 0 -13.4 0zM364.06 379.07 a6.7 6.7 0 1 0 13.4 0 a6.7 6.7 0 1 0 -13.4 0zM422.09 412.57 a6.7 6.7 0 1 0 13.4 0 a6.7 6.7 0 1 0 -13.4 0zM422.09 479.57 a6.7 6.7 0 1 0 13.4 0 a6.7 6.7 0 1 0 -13.4 0zM306.04 412.57 a6.7 6.7 0 1 0 13.4 0 a6.7 6.7 0 1 0 -13.4 0zM480.11 513.07 a6.7 6.7 0 1 0 13.4 0 a6.7 6.7 0 1 0 -13.4 0zM480.11 580.07 a6.7 6.7 0 1 0 13.4 0 a6.7 6.7 0 1 0 -13.4 0zM422.09 613.57 a6.7 6.7 0 1 0 13.4 0 a6.7 6.7 0 1 0 -13.4 0zM538.14 77.57 a6.7 6.7 0 1 0 13.4 0 a6.7 6.7 0 1 0 -13.4 0zM596.16 111.07 a6.7 6.7 0 1 0 13.4 0 a6.7 6.7 0 1 0 -13.4 0zM596.16 178.07 a6.7 6.7 0 1 0 13.4 0 a6.7 6.7 0 1 0 -13.4 0zM538.14 211.57 a6.7 6.7 0 1 0 13.4 0 a6.7 6.7 0 1 0 -13.4 0zM480.11 178.07 a6.7 6.7 0 1 0 13.4 0 a6.7 6.7 0 1 0 -13.4 0zM480.11 111.07 a6.7 6.7 0 1 0 13.4 0 a6.7 6.7 0 1 0 -13.4 0zM538.14 278.57 a6.7 6.7 0 1 0 13.4 0 a6.7 6.7 0 1 0 -13.4 0zM596.16 312.07 a6.7 6.7 0 1 0 13.4 0 a6.7 6.7 0 1 0 -13.4 0zM596.16 379.07 a6.7 6.7 0 1 0 13.4 0 a6.7 6.7 0 1 0 -13.4 0zM538.14 412.57 a6.7 6.7 0 1 0 13.4 0 a6.7 6.7 0 1 0 -13.4 0zM480.11 379.07 a6.7 6.7 0 1 0 13.4 0 a6.7 6.7 0 1 0 -13.4 0zM480.11 312.07 a6.7 6.7 0 1 0 13.4 0 a6.7 6.7 0 1 0 -13.4 0zM596.16 -22.93 a6.7 6.7 0 1 0 13.4 0 a6.7 6.7 0 1 0 -13.4 0zM654.19 10.57 a6.7 6.7 0 1 0 13.4 0 a6.7 6.7 0 1 0 -13.4 0zM654.19 77.57 a6.7 6.7 0 1 0 13.4 0 a6.7 6.7 0 1 0 -13.4 0zM538.14 10.57 a6.7 6.7 0 1 0 13.4 0 a6.7 6.7 0 1 0 -13.4 0zM654.19 278.57 a6.7 6.7 0 1 0 13.4 0 a6.7 6.7 0 1 0 -13.4 0zM712.21 312.07 a6.7 6.7 0 1 0 13.4 0 a6.7 6.7 0 1 0 -13.4 0zM712.21 379.07 a6.7 6.7 0 1 0 13.4 0 a6.7 6.7 0 1 0 -13.4 0zM654.19 412.57 a6.7 6.7 0 1 0 13.4 0 a6.7 6.7 0 1 0 -13.4 0zM654.19 479.57 a6.7 6.7 0 1 0 13.4 0 a6.7 6.7 0 1 0 -13.4 0zM596.16 513.07 a6.7 6.7 0 1 0 13.4 0 a6.7 6.7 0 1 0 -13.4 0zM538.14 479.57 a6.7 6.7 0 1 0 13.4 0 a6.7 6.7 0 1 0 -13.4 0zM596.16 580.07 a6.7 6.7 0 1 0 13.4 0 a6.7 6.7 0 1 0 -13.4 0zM654.19 613.57 a6.7 6.7 0 1 0 13.4 0 a6.7 6.7 0 1 0 -13.4 0zM654.19 680.57 a6.7 6.7 0 1 0 13.4 0 a6.7 6.7 0 1 0 -13.4 0zM596.16 714.07 a6.7 6.7 0 1 0 13.4 0 a6.7 6.7 0 1 0 -13.4 0zM538.14 680.57 a6.7 6.7 0 1 0 13.4 0 a6.7 6.7 0 1 0 -13.4 0zM538.14 613.57 a6.7 6.7 0 1 0 13.4 0 a6.7 6.7 0 1 0 -13.4 0zM712.21 178.07 a6.7 6.7 0 1 0 13.4 0 a6.7 6.7 0 1 0 -13.4 0zM770.24 211.57 a6.7 6.7 0 1 0 13.4 0 a6.7 6.7 0 1 0 -13.4 0zM770.24 278.57 a6.7 6.7 0 1 0 13.4 0 a6.7 6.7 0 1 0 -13.4 0zM654.19 211.57 a6.7 6.7 0 1 0 13.4 0 a6.7 6.7 0 1 0 -13.4 0zM770.24 412.57 a6.7 6.7 0 1 0 13.4 0 a6.7 6.7 0 1 0 -13.4 0zM770.24 479.57 a6.7 6.7 0 1 0 13.4 0 a6.7 6.7 0 1 0 -13.4 0zM712.21 513.07 a6.7 6.7 0 1 0 13.4 0 a6.7 6.7 0 1 0 -13.4 0zM828.26 178.07 a6.7 6.7 0 1 0 13.4 0 a6.7 6.7 0 1 0 -13.4 0zM886.29 211.57 a6.7 6.7 0 1 0 13.4 0 a6.7 6.7 0 1 0 -13.4 0zM886.29 278.57 a6.7 6.7 0 1 0 13.4 0 a6.7 6.7 0 1 0 -13.4 0zM828.26 312.07 a6.7 6.7 0 1 0 13.4 0 a6.7 6.7 0 1 0 -13.4 0zM944.32 312.07 a6.7 6.7 0 1 0 13.4 0 a6.7 6.7 0 1 0 -13.4 0zM944.32 379.07 a6.7 6.7 0 1 0 13.4 0 a6.7 6.7 0 1 0 -13.4 0zM886.29 412.57 a6.7 6.7 0 1 0 13.4 0 a6.7 6.7 0 1 0 -13.4 0zM828.26 379.07 a6.7 6.7 0 1 0 13.4 0 a6.7 6.7 0 1 0 -13.4 0zM944.32 -22.93 a6.7 6.7 0 1 0 13.4 0 a6.7 6.7 0 1 0 -13.4 0zM1002.34 10.57 a6.7 6.7 0 1 0 13.4 0 a6.7 6.7 0 1 0 -13.4 0zM1002.34 77.57 a6.7 6.7 0 1 0 13.4 0 a6.7 6.7 0 1 0 -13.4 0zM944.32 111.07 a6.7 6.7 0 1 0 13.4 0 a6.7 6.7 0 1 0 -13.4 0zM886.29 77.57 a6.7 6.7 0 1 0 13.4 0 a6.7 6.7 0 1 0 -13.4 0zM886.29 10.57 a6.7 6.7 0 1 0 13.4 0 a6.7 6.7 0 1 0 -13.4 0zM1060.37 111.07 a6.7 6.7 0 1 0 13.4 0 a6.7 6.7 0 1 0 -13.4 0zM1060.37 178.07 a6.7 6.7 0 1 0 13.4 0 a6.7 6.7 0 1 0 -13.4 0zM1002.34 211.57 a6.7 6.7 0 1 0 13.4 0 a6.7 6.7 0 1 0 -13.4 0zM944.32 178.07 a6.7 6.7 0 1 0 13.4 0 a6.7 6.7 0 1 0 -13.4 0zM1002.34 412.57 a6.7 6.7 0 1 0 13.4 0 a6.7 6.7 0 1 0 -13.4 0zM1002.34 479.57 a6.7 6.7 0 1 0 13.4 0 a6.7 6.7 0 1 0 -13.4 0zM944.32 513.07 a6.7 6.7 0 1 0 13.4 0 a6.7 6.7 0 1 0 -13.4 0zM886.29 479.57 a6.7 6.7 0 1 0 13.4 0 a6.7 6.7 0 1 0 -13.4 0zM1060.37 513.07 a6.7 6.7 0 1 0 13.4 0 a6.7 6.7 0 1 0 -13.4 0zM1060.37 580.07 a6.7 6.7 0 1 0 13.4 0 a6.7 6.7 0 1 0 -13.4 0zM1002.34 613.57 a6.7 6.7 0 1 0 13.4 0 a6.7 6.7 0 1 0 -13.4 0zM944.32 580.07 a6.7 6.7 0 1 0 13.4 0 a6.7 6.7 0 1 0 -13.4 0zM1118.39 77.57 a6.7 6.7 0 1 0 13.4 0 a6.7 6.7 0 1 0 -13.4 0zM1176.42 111.07 a6.7 6.7 0 1 0 13.4 0 a6.7 6.7 0 1 0 -13.4 0zM1176.42 178.07 a6.7 6.7 0 1 0 13.4 0 a6.7 6.7 0 1 0 -13.4 0zM1118.39 211.57 a6.7 6.7 0 1 0 13.4 0 a6.7 6.7 0 1 0 -13.4 0zM1234.44 211.57 a6.7 6.7 0 1 0 13.4 0 a6.7 6.7 0 1 0 -13.4 0zM1234.44 278.57 a6.7 6.7 0 1 0 13.4 0 a6.7 6.7 0 1 0 -13.4 0zM1176.42 312.07 a6.7 6.7 0 1 0 13.4 0 a6.7 6.7 0 1 0 -13.4 0zM1118.39 278.57 a6.7 6.7 0 1 0 13.4 0 a6.7 6.7 0 1 0 -13.4 0zM1234.44 479.57 a6.7 6.7 0 1 0 13.4 0 a6.7 6.7 0 1 0 -13.4 0zM1292.47 513.07 a6.7 6.7 0 1 0 13.4 0 a6.7 6.7 0 1 0 -13.4 0zM1292.47 580.07 a6.7 6.7 0 1 0 13.4 0 a6.7 6.7 0 1 0 -13.4 0zM1234.44 613.57 a6.7 6.7 0 1 0 13.4 0 a6.7 6.7 0 1 0 -13.4 0zM1176.42 580.07 a6.7 6.7 0 1 0 13.4 0 a6.7 6.7 0 1 0 -13.4 0zM1176.42 513.07 a6.7 6.7 0 1 0 13.4 0 a6.7 6.7 0 1 0 -13.4 0zM1292.47 379.07 a6.7 6.7 0 1 0 13.4 0 a6.7 6.7 0 1 0 -13.4 0zM1350.49 412.57 a6.7 6.7 0 1 0 13.4 0 a6.7 6.7 0 1 0 -13.4 0zM1350.49 479.57 a6.7 6.7 0 1 0 13.4 0 a6.7 6.7 0 1 0 -13.4 0zM1234.44 412.57 a6.7 6.7 0 1 0 13.4 0 a6.7 6.7 0 1 0 -13.4 0zM1408.52 513.07 a6.7 6.7 0 1 0 13.4 0 a6.7 6.7 0 1 0 -13.4 0zM1408.52 580.07 a6.7 6.7 0 1 0 13.4 0 a6.7 6.7 0 1 0 -13.4 0zM1350.49 613.57 a6.7 6.7 0 1 0 13.4 0 a6.7 6.7 0 1 0 -13.4 0zM1350.49 680.57 a6.7 6.7 0 1 0 13.4 0 a6.7 6.7 0 1 0 -13.4 0zM1292.47 714.07 a6.7 6.7 0 1 0 13.4 0 a6.7 6.7 0 1 0 -13.4 0zM1234.44 680.57 a6.7 6.7 0 1 0 13.4 0 a6.7 6.7 0 1 0 -13.4 0zM1408.52 -22.93 a6.7 6.7 0 1 0 13.4 0 a6.7 6.7 0 1 0 -13.4 0zM1466.54 10.57 a6.7 6.7 0 1 0 13.4 0 a6.7 6.7 0 1 0 -13.4 0zM1466.54 77.57 a6.7 6.7 0 1 0 13.4 0 a6.7 6.7 0 1 0 -13.4 0zM1408.52 111.07 a6.7 6.7 0 1 0 13.4 0 a6.7 6.7 0 1 0 -13.4 0zM1350.49 77.57 a6.7 6.7 0 1 0 13.4 0 a6.7 6.7 0 1 0 -13.4 0zM1350.49 10.57 a6.7 6.7 0 1 0 13.4 0 a6.7 6.7 0 1 0 -13.4 0zM1524.57 111.07 a6.7 6.7 0 1 0 13.4 0 a6.7 6.7 0 1 0 -13.4 0zM1524.57 178.07 a6.7 6.7 0 1 0 13.4 0 a6.7 6.7 0 1 0 -13.4 0zM1466.54 211.57 a6.7 6.7 0 1 0 13.4 0 a6.7 6.7 0 1 0 -13.4 0zM1408.52 178.07 a6.7 6.7 0 1 0 13.4 0 a6.7 6.7 0 1 0 -13.4 0zM1408.52 379.07 a6.7 6.7 0 1 0 13.4 0 a6.7 6.7 0 1 0 -13.4 0zM1466.54 412.57 a6.7 6.7 0 1 0 13.4 0 a6.7 6.7 0 1 0 -13.4 0zM1466.54 479.57 a6.7 6.7 0 1 0 13.4 0 a6.7 6.7 0 1 0 -13.4 0zM1466.54 613.57 a6.7 6.7 0 1 0 13.4 0 a6.7 6.7 0 1 0 -13.4 0zM1466.54 680.57 a6.7 6.7 0 1 0 13.4 0 a6.7 6.7 0 1 0 -13.4 0zM1408.52 714.07 a6.7 6.7 0 1 0 13.4 0 a6.7 6.7 0 1 0 -13.4 0z" fill="rgba(28, 144, 189, 1)"></path><path d="M92.39 40.62L157.35 78.12L157.35 153.12L92.39 190.62L27.44 153.12L27.44 78.12zM27.44 153.12L92.39 190.62L92.39 265.62L27.44 303.12L-37.51 265.62L-37.51 190.62zM92.39 490.62L157.35 528.12L157.35 603.12L92.39 640.62L27.44 603.12L27.44 528.12zM157.35 378.12L222.3 415.62L222.3 490.62L157.35 528.12L92.39 490.62L92.39 415.62zM352.21 490.62L417.16 528.12L417.16 603.12L352.21 640.62L287.25 603.12L287.25 528.12zM417.16 -71.88L482.12 -34.38L482.12 40.62L417.16 78.12L352.21 40.62L352.21 -34.38zM482.12 40.62L547.07 78.12L547.07 153.12L482.12 190.62L417.16 153.12L417.16 78.12zM417.16 153.12L482.12 190.62L482.12 265.62L417.16 303.12L352.21 265.62L352.21 190.62zM417.16 378.12L482.12 415.62L482.12 490.62L417.16 528.12L352.21 490.62L352.21 415.62zM482.12 490.62L547.07 528.12L547.07 603.12L482.12 640.62L417.16 603.12L417.16 528.12zM547.07 153.12L612.02 190.62L612.02 265.62L547.07 303.12L482.12 265.62L482.12 190.62zM612.02 265.62L676.98 303.12L676.98 378.12L612.02 415.62L547.07 378.12L547.07 303.12zM547.07 378.12L612.02 415.62L612.02 490.62L547.07 528.12L482.12 490.62L482.12 415.62zM612.02 490.62L676.98 528.12L676.98 603.12L612.02 640.62L547.07 603.12L547.07 528.12zM676.98 -71.88L741.93 -34.38L741.93 40.62L676.98 78.12L612.02 40.62L612.02 -34.38zM676.98 378.12L741.93 415.62L741.93 490.62L676.98 528.12L612.02 490.62L612.02 415.62zM741.93 490.62L806.89 528.12L806.89 603.12L741.93 640.62L676.98 603.12L676.98 528.12zM806.88 -71.88L871.84 -34.38L871.84 40.62L806.88 78.12L741.93 40.62L741.93 -34.38zM871.84 40.62L936.79 78.12L936.79 153.12L871.84 190.62L806.88 153.12L806.88 78.12zM871.84 265.62L936.79 303.12L936.79 378.12L871.84 415.62L806.88 378.12L806.88 303.12zM806.88 378.12L871.84 415.62L871.84 490.62L806.88 528.12L741.93 490.62L741.93 415.62zM871.84 490.62L936.79 528.12L936.79 603.12L871.84 640.62L806.88 603.12L806.88 528.12zM936.79 -71.88L1001.75 -34.38L1001.75 40.62L936.79 78.12L871.84 40.62L871.84 -34.38zM1001.75 40.62L1066.7 78.12L1066.7 153.12L1001.75 190.62L936.79 153.12L936.79 78.12zM936.79 153.12L1001.75 190.62L1001.75 265.62L936.79 303.12L871.84 265.62L871.84 190.62zM1001.75 265.62L1066.7 303.12L1066.7 378.12L1001.75 415.62L936.79 378.12L936.79 303.12zM1001.75 490.62L1066.7 528.12L1066.7 603.12L1001.75 640.62L936.79 603.12L936.79 528.12zM1131.65 265.62L1196.61 303.12L1196.61 378.12L1131.65 415.62L1066.7 378.12L1066.7 303.12zM1261.56 40.62L1326.51 78.12L1326.51 153.12L1261.56 190.62L1196.61 153.12L1196.61 78.12zM1196.61 378.12L1261.56 415.62L1261.56 490.62L1196.61 528.12L1131.65 490.62L1131.65 415.62zM1391.47 40.62L1456.42 78.12L1456.42 153.12L1391.47 190.62L1326.52 153.12L1326.52 78.12zM1326.52 153.12L1391.47 190.62L1391.47 265.62L1326.52 303.12L1261.56 265.62L1261.56 190.62zM1391.47 265.62L1456.42 303.12L1456.42 378.12L1391.47 415.62L1326.52 378.12L1326.52 303.12zM1326.52 378.12L1391.47 415.62L1391.47 490.62L1326.52 528.12L1261.56 490.62L1261.56 415.62zM1521.38 265.62L1586.33 303.12L1586.33 378.12L1521.38 415.62L1456.42 378.12L1456.42 303.12zM1456.42 378.12L1521.38 415.62L1521.38 490.62L1456.42 528.12L1391.47 490.62L1391.47 415.62z" stroke="rgba(5, 68, 130, 1)" stroke-width="2"></path><path d="M84.89 40.62 a7.5 7.5 0 1 0 15 0 a7.5 7.5 0 1 0 -15 0zM149.85 78.12 a7.5 7.5 0 1 0 15 0 a7.5 7.5 0 1 0 -15 0zM149.85 153.12 a7.5 7.5 0 1 0 15 0 a7.5 7.5 0 1 0 -15 0zM84.89 190.62 a7.5 7.5 0 1 0 15 0 a7.5 7.5 0 1 0 -15 0zM19.94 153.12 a7.5 7.5 0 1 0 15 0 a7.5 7.5 0 1 0 -15 0zM19.94 78.12 a7.5 7.5 0 1 0 15 0 a7.5 7.5 0 1 0 -15 0zM84.89 265.62 a7.5 7.5 0 1 0 15 0 a7.5 7.5 0 1 0 -15 0zM19.94 303.12 a7.5 7.5 0 1 0 15 0 a7.5 7.5 0 1 0 -15 0zM-45.01 265.62 a7.5 7.5 0 1 0 15 0 a7.5 7.5 0 1 0 -15 0zM-45.01 190.62 a7.5 7.5 0 1 0 15 0 a7.5 7.5 0 1 0 -15 0zM84.89 490.62 a7.5 7.5 0 1 0 15 0 a7.5 7.5 0 1 0 -15 0zM149.85 528.12 a7.5 7.5 0 1 0 15 0 a7.5 7.5 0 1 0 -15 0zM149.85 603.12 a7.5 7.5 0 1 0 15 0 a7.5 7.5 0 1 0 -15 0zM84.89 640.62 a7.5 7.5 0 1 0 15 0 a7.5 7.5 0 1 0 -15 0zM19.94 603.12 a7.5 7.5 0 1 0 15 0 a7.5 7.5 0 1 0 -15 0zM19.94 528.12 a7.5 7.5 0 1 0 15 0 a7.5 7.5 0 1 0 -15 0zM149.85 378.12 a7.5 7.5 0 1 0 15 0 a7.5 7.5 0 1 0 -15 0zM214.8 415.62 a7.5 7.5 0 1 0 15 0 a7.5 7.5 0 1 0 -15 0zM214.8 490.62 a7.5 7.5 0 1 0 15 0 a7.5 7.5 0 1 0 -15 0zM84.89 415.62 a7.5 7.5 0 1 0 15 0 a7.5 7.5 0 1 0 -15 0zM344.71 490.62 a7.5 7.5 0 1 0 15 0 a7.5 7.5 0 1 0 -15 0zM409.66 528.12 a7.5 7.5 0 1 0 15 0 a7.5 7.5 0 1 0 -15 0zM409.66 603.12 a7.5 7.5 0 1 0 15 0 a7.5 7.5 0 1 0 -15 0zM344.71 640.62 a7.5 7.5 0 1 0 15 0 a7.5 7.5 0 1 0 -15 0zM279.75 603.12 a7.5 7.5 0 1 0 15 0 a7.5 7.5 0 1 0 -15 0zM279.75 528.12 a7.5 7.5 0 1 0 15 0 a7.5 7.5 0 1 0 -15 0zM409.66 -71.88 a7.5 7.5 0 1 0 15 0 a7.5 7.5 0 1 0 -15 0zM474.62 -34.38 a7.5 7.5 0 1 0 15 0 a7.5 7.5 0 1 0 -15 0zM474.62 40.62 a7.5 7.5 0 1 0 15 0 a7.5 7.5 0 1 0 -15 0zM409.66 78.12 a7.5 7.5 0 1 0 15 0 a7.5 7.5 0 1 0 -15 0zM344.71 40.62 a7.5 7.5 0 1 0 15 0 a7.5 7.5 0 1 0 -15 0zM344.71 -34.38 a7.5 7.5 0 1 0 15 0 a7.5 7.5 0 1 0 -15 0zM539.57 78.12 a7.5 7.5 0 1 0 15 0 a7.5 7.5 0 1 0 -15 0zM539.57 153.12 a7.5 7.5 0 1 0 15 0 a7.5 7.5 0 1 0 -15 0zM474.62 190.62 a7.5 7.5 0 1 0 15 0 a7.5 7.5 0 1 0 -15 0zM409.66 153.12 a7.5 7.5 0 1 0 15 0 a7.5 7.5 0 1 0 -15 0zM474.62 265.62 a7.5 7.5 0 1 0 15 0 a7.5 7.5 0 1 0 -15 0zM409.66 303.12 a7.5 7.5 0 1 0 15 0 a7.5 7.5 0 1 0 -15 0zM344.71 265.62 a7.5 7.5 0 1 0 15 0 a7.5 7.5 0 1 0 -15 0zM344.71 190.62 a7.5 7.5 0 1 0 15 0 a7.5 7.5 0 1 0 -15 0zM409.66 378.12 a7.5 7.5 0 1 0 15 0 a7.5 7.5 0 1 0 -15 0zM474.62 415.62 a7.5 7.5 0 1 0 15 0 a7.5 7.5 0 1 0 -15 0zM474.62 490.62 a7.5 7.5 0 1 0 15 0 a7.5 7.5 0 1 0 -15 0zM344.71 415.62 a7.5 7.5 0 1 0 15 0 a7.5 7.5 0 1 0 -15 0zM539.57 528.12 a7.5 7.5 0 1 0 15 0 a7.5 7.5 0 1 0 -15 0zM539.57 603.12 a7.5 7.5 0 1 0 15 0 a7.5 7.5 0 1 0 -15 0zM474.62 640.62 a7.5 7.5 0 1 0 15 0 a7.5 7.5 0 1 0 -15 0zM604.52 190.62 a7.5 7.5 0 1 0 15 0 a7.5 7.5 0 1 0 -15 0zM604.52 265.62 a7.5 7.5 0 1 0 15 0 a7.5 7.5 0 1 0 -15 0zM539.57 303.12 a7.5 7.5 0 1 0 15 0 a7.5 7.5 0 1 0 -15 0zM669.48 303.12 a7.5 7.5 0 1 0 15 0 a7.5 7.5 0 1 0 -15 0zM669.48 378.12 a7.5 7.5 0 1 0 15 0 a7.5 7.5 0 1 0 -15 0zM604.52 415.62 a7.5 7.5 0 1 0 15 0 a7.5 7.5 0 1 0 -15 0zM539.57 378.12 a7.5 7.5 0 1 0 15 0 a7.5 7.5 0 1 0 -15 0zM604.52 490.62 a7.5 7.5 0 1 0 15 0 a7.5 7.5 0 1 0 -15 0zM669.48 528.12 a7.5 7.5 0 1 0 15 0 a7.5 7.5 0 1 0 -15 0zM669.48 603.12 a7.5 7.5 0 1 0 15 0 a7.5 7.5 0 1 0 -15 0zM604.52 640.62 a7.5 7.5 0 1 0 15 0 a7.5 7.5 0 1 0 -15 0zM669.48 -71.88 a7.5 7.5 0 1 0 15 0 a7.5 7.5 0 1 0 -15 0zM734.43 -34.38 a7.5 7.5 0 1 0 15 0 a7.5 7.5 0 1 0 -15 0zM734.43 40.62 a7.5 7.5 0 1 0 15 0 a7.5 7.5 0 1 0 -15 0zM669.48 78.12 a7.5 7.5 0 1 0 15 0 a7.5 7.5 0 1 0 -15 0zM604.52 40.62 a7.5 7.5 0 1 0 15 0 a7.5 7.5 0 1 0 -15 0zM604.52 -34.38 a7.5 7.5 0 1 0 15 0 a7.5 7.5 0 1 0 -15 0zM734.43 415.62 a7.5 7.5 0 1 0 15 0 a7.5 7.5 0 1 0 -15 0zM734.43 490.62 a7.5 7.5 0 1 0 15 0 a7.5 7.5 0 1 0 -15 0zM799.39 528.12 a7.5 7.5 0 1 0 15 0 a7.5 7.5 0 1 0 -15 0zM799.39 603.12 a7.5 7.5 0 1 0 15 0 a7.5 7.5 0 1 0 -15 0zM734.43 640.62 a7.5 7.5 0 1 0 15 0 a7.5 7.5 0 1 0 -15 0zM799.38 -71.88 a7.5 7.5 0 1 0 15 0 a7.5 7.5 0 1 0 -15 0zM864.34 -34.38 a7.5 7.5 0 1 0 15 0 a7.5 7.5 0 1 0 -15 0zM864.34 40.62 a7.5 7.5 0 1 0 15 0 a7.5 7.5 0 1 0 -15 0zM799.38 78.12 a7.5 7.5 0 1 0 15 0 a7.5 7.5 0 1 0 -15 0zM929.29 78.12 a7.5 7.5 0 1 0 15 0 a7.5 7.5 0 1 0 -15 0zM929.29 153.12 a7.5 7.5 0 1 0 15 0 a7.5 7.5 0 1 0 -15 0zM864.34 190.62 a7.5 7.5 0 1 0 15 0 a7.5 7.5 0 1 0 -15 0zM799.38 153.12 a7.5 7.5 0 1 0 15 0 a7.5 7.5 0 1 0 -15 0zM864.34 265.62 a7.5 7.5 0 1 0 15 0 a7.5 7.5 0 1 0 -15 0zM929.29 303.12 a7.5 7.5 0 1 0 15 0 a7.5 7.5 0 1 0 -15 0zM929.29 378.12 a7.5 7.5 0 1 0 15 0 a7.5 7.5 0 1 0 -15 0zM864.34 415.62 a7.5 7.5 0 1 0 15 0 a7.5 7.5 0 1 0 -15 0zM799.38 378.12 a7.5 7.5 0 1 0 15 0 a7.5 7.5 0 1 0 -15 0zM799.38 303.12 a7.5 7.5 0 1 0 15 0 a7.5 7.5 0 1 0 -15 0zM864.34 490.62 a7.5 7.5 0 1 0 15 0 a7.5 7.5 0 1 0 -15 0zM799.38 528.12 a7.5 7.5 0 1 0 15 0 a7.5 7.5 0 1 0 -15 0zM929.29 528.12 a7.5 7.5 0 1 0 15 0 a7.5 7.5 0 1 0 -15 0zM929.29 603.12 a7.5 7.5 0 1 0 15 0 a7.5 7.5 0 1 0 -15 0zM864.34 640.62 a7.5 7.5 0 1 0 15 0 a7.5 7.5 0 1 0 -15 0zM799.38 603.12 a7.5 7.5 0 1 0 15 0 a7.5 7.5 0 1 0 -15 0zM929.29 -71.88 a7.5 7.5 0 1 0 15 0 a7.5 7.5 0 1 0 -15 0zM994.25 -34.38 a7.5 7.5 0 1 0 15 0 a7.5 7.5 0 1 0 -15 0zM994.25 40.62 a7.5 7.5 0 1 0 15 0 a7.5 7.5 0 1 0 -15 0zM1059.2 78.12 a7.5 7.5 0 1 0 15 0 a7.5 7.5 0 1 0 -15 0zM1059.2 153.12 a7.5 7.5 0 1 0 15 0 a7.5 7.5 0 1 0 -15 0zM994.25 190.62 a7.5 7.5 0 1 0 15 0 a7.5 7.5 0 1 0 -15 0zM994.25 265.62 a7.5 7.5 0 1 0 15 0 a7.5 7.5 0 1 0 -15 0zM1059.2 303.12 a7.5 7.5 0 1 0 15 0 a7.5 7.5 0 1 0 -15 0zM1059.2 378.12 a7.5 7.5 0 1 0 15 0 a7.5 7.5 0 1 0 -15 0zM994.25 415.62 a7.5 7.5 0 1 0 15 0 a7.5 7.5 0 1 0 -15 0zM994.25 490.62 a7.5 7.5 0 1 0 15 0 a7.5 7.5 0 1 0 -15 0zM1059.2 528.12 a7.5 7.5 0 1 0 15 0 a7.5 7.5 0 1 0 -15 0zM1059.2 603.12 a7.5 7.5 0 1 0 15 0 a7.5 7.5 0 1 0 -15 0zM994.25 640.62 a7.5 7.5 0 1 0 15 0 a7.5 7.5 0 1 0 -15 0zM1124.15 265.62 a7.5 7.5 0 1 0 15 0 a7.5 7.5 0 1 0 -15 0zM1189.11 303.12 a7.5 7.5 0 1 0 15 0 a7.5 7.5 0 1 0 -15 0zM1189.11 378.12 a7.5 7.5 0 1 0 15 0 a7.5 7.5 0 1 0 -15 0zM1124.15 415.62 a7.5 7.5 0 1 0 15 0 a7.5 7.5 0 1 0 -15 0zM1254.06 40.62 a7.5 7.5 0 1 0 15 0 a7.5 7.5 0 1 0 -15 0zM1319.01 78.12 a7.5 7.5 0 1 0 15 0 a7.5 7.5 0 1 0 -15 0zM1319.01 153.12 a7.5 7.5 0 1 0 15 0 a7.5 7.5 0 1 0 -15 0zM1254.06 190.62 a7.5 7.5 0 1 0 15 0 a7.5 7.5 0 1 0 -15 0zM1189.11 153.12 a7.5 7.5 0 1 0 15 0 a7.5 7.5 0 1 0 -15 0zM1189.11 78.12 a7.5 7.5 0 1 0 15 0 a7.5 7.5 0 1 0 -15 0zM1254.06 415.62 a7.5 7.5 0 1 0 15 0 a7.5 7.5 0 1 0 -15 0zM1254.06 490.62 a7.5 7.5 0 1 0 15 0 a7.5 7.5 0 1 0 -15 0zM1189.11 528.12 a7.5 7.5 0 1 0 15 0 a7.5 7.5 0 1 0 -15 0zM1124.15 490.62 a7.5 7.5 0 1 0 15 0 a7.5 7.5 0 1 0 -15 0zM1383.97 40.62 a7.5 7.5 0 1 0 15 0 a7.5 7.5 0 1 0 -15 0zM1448.92 78.12 a7.5 7.5 0 1 0 15 0 a7.5 7.5 0 1 0 -15 0zM1448.92 153.12 a7.5 7.5 0 1 0 15 0 a7.5 7.5 0 1 0 -15 0zM1383.97 190.62 a7.5 7.5 0 1 0 15 0 a7.5 7.5 0 1 0 -15 0zM1319.02 153.12 a7.5 7.5 0 1 0 15 0 a7.5 7.5 0 1 0 -15 0zM1319.02 78.12 a7.5 7.5 0 1 0 15 0 a7.5 7.5 0 1 0 -15 0zM1383.97 265.62 a7.5 7.5 0 1 0 15 0 a7.5 7.5 0 1 0 -15 0zM1319.02 303.12 a7.5 7.5 0 1 0 15 0 a7.5 7.5 0 1 0 -15 0zM1254.06 265.62 a7.5 7.5 0 1 0 15 0 a7.5 7.5 0 1 0 -15 0zM1448.92 303.12 a7.5 7.5 0 1 0 15 0 a7.5 7.5 0 1 0 -15 0zM1448.92 378.12 a7.5 7.5 0 1 0 15 0 a7.5 7.5 0 1 0 -15 0zM1383.97 415.62 a7.5 7.5 0 1 0 15 0 a7.5 7.5 0 1 0 -15 0zM1319.02 378.12 a7.5 7.5 0 1 0 15 0 a7.5 7.5 0 1 0 -15 0zM1383.97 490.62 a7.5 7.5 0 1 0 15 0 a7.5 7.5 0 1 0 -15 0zM1319.02 528.12 a7.5 7.5 0 1 0 15 0 a7.5 7.5 0 1 0 -15 0zM1513.88 265.62 a7.5 7.5 0 1 0 15 0 a7.5 7.5 0 1 0 -15 0zM1578.83 303.12 a7.5 7.5 0 1 0 15 0 a7.5 7.5 0 1 0 -15 0zM1578.83 378.12 a7.5 7.5 0 1 0 15 0 a7.5 7.5 0 1 0 -15 0zM1513.88 415.62 a7.5 7.5 0 1 0 15 0 a7.5 7.5 0 1 0 -15 0zM1513.88 490.62 a7.5 7.5 0 1 0 15 0 a7.5 7.5 0 1 0 -15 0zM1448.92 528.12 a7.5 7.5 0 1 0 15 0 a7.5 7.5 0 1 0 -15 0z" fill="rgba(5, 68, 130, 1)"></path><path d="M10.63 266.72L53.93 291.72L53.93 341.72L10.63 366.72L-32.67 341.72L-32.67 291.72zM53.93 491.72L97.23 516.72L97.23 566.72L53.93 591.72L10.63 566.72L10.63 516.72zM97.23 416.72L140.54 441.72L140.54 491.72L97.23 516.72L53.93 491.72L53.93 441.72zM183.84 266.72L227.14 291.72L227.14 341.72L183.84 366.72L140.54 341.72L140.54 291.72zM183.84 416.72L227.14 441.72L227.14 491.72L183.84 516.72L140.54 491.72L140.54 441.72zM227.14 491.72L270.44 516.72L270.44 566.72L227.14 591.72L183.84 566.72L183.84 516.72zM313.75 41.72L357.05 66.72L357.05 116.72L313.75 141.72L270.44 116.72L270.44 66.72zM313.75 191.72L357.05 216.72L357.05 266.72L313.75 291.72L270.44 266.72L270.44 216.72zM313.75 491.72L357.05 516.72L357.05 566.72L313.75 591.72L270.44 566.72L270.44 516.72zM400.35 191.72L443.66 216.72L443.66 266.72L400.35 291.72L357.05 266.72L357.05 216.72zM357.05 416.72L400.35 441.72L400.35 491.72L357.05 516.72L313.75 491.72L313.75 441.72zM400.35 491.72L443.66 516.72L443.66 566.72L400.35 591.72L357.05 566.72L357.05 516.72zM573.56 41.72L616.87 66.72L616.87 116.72L573.56 141.72L530.26 116.72L530.26 66.72zM616.87 266.72L660.17 291.72L660.17 341.72L616.87 366.72L573.56 341.72L573.56 291.72zM660.17 491.72L703.47 516.72L703.47 566.72L660.17 591.72L616.87 566.72L616.87 516.72zM703.47 266.72L746.77 291.72L746.77 341.72L703.47 366.72L660.17 341.72L660.17 291.72zM790.08 -33.28L833.38 -8.28L833.38 41.72L790.08 66.72L746.77 41.72L746.77 -8.28zM833.38 491.72L876.68 516.72L876.68 566.72L833.38 591.72L790.08 566.72L790.08 516.72zM876.68 -33.28L919.98 -8.28L919.98 41.72L876.68 66.72L833.38 41.72L833.38 -8.28zM1136.5 -33.28L1179.8 -8.28L1179.8 41.72L1136.5 66.72L1093.19 41.72L1093.19 -8.28zM1179.8 41.72L1223.1 66.72L1223.1 116.72L1179.8 141.72L1136.5 116.72L1136.5 66.72zM1179.8 191.72L1223.1 216.72L1223.1 266.72L1179.8 291.72L1136.5 266.72L1136.5 216.72zM1223.1 -33.28L1266.4 -8.28L1266.4 41.72L1223.1 66.72L1179.8 41.72L1179.8 -8.28zM1309.71 -33.28L1353.01 -8.28L1353.01 41.72L1309.71 66.72L1266.4 41.72L1266.4 -8.28zM1353.01 191.72L1396.31 216.72L1396.31 266.72L1353.01 291.72L1309.71 266.72L1309.71 216.72zM1309.71 416.72L1353.01 441.72L1353.01 491.72L1309.71 516.72L1266.4 491.72L1266.4 441.72zM1396.31 -33.28L1439.61 -8.28L1439.61 41.72L1396.31 66.72L1353.01 41.72L1353.01 -8.28z" stroke="rgba(100, 7, 198, 0.93)" stroke-width="2"></path></g><defs><mask id="SvgjsMask1075"><rect width="1440" height="560" fill="#ffffff"></rect></mask><linearGradient x1="0%" y1="50%" x2="100%" y2="50%" gradientUnits="userSpaceOnUse" id="SvgjsLinearGradient1076"><stop stop-color="#0e2a47" offset="0"></stop><stop stop-color="rgba(81, 3, 156, 1)" offset="1"></stop></linearGradient></defs></svg>